<?xml version="1.0" standalone="no"?>
<!DOCTYPE svg PUBLIC "-//W3C//DTD SVG 20010904//EN"
 "http://www.w3.org/TR/2001/REC-SVG-20010904/DTD/svg10.dtd">
<svg version="1.0" xmlns="http://www.w3.org/2000/svg"
 width="256.000000pt" height="256.000000pt" viewBox="0 0 256.000000 256.000000"
 preserveAspectRatio="xMidYMid meet">
<metadata>
Created by potrace 1.16, written by Peter Selinger 2001-2019
</metadata>
<g transform="translate(0.000000,256.000000) scale(0.100000,-0.100000)"
fill="#000000" stroke="none">
<path d="M1175 2534 c-81 -9 -202 -37 -285 -66 -183 -65 -311 -148 -461 -297
-248 -248 -369 -536 -369 -881 0 -333 117 -623 349 -863 185 -192 392 -308
650 -364 118 -26 398 -23 516 5 322 76 589 260 768 528 146 219 209 428 209
694 1 263 -63 474 -209 694 -180 271 -465 464 -785 531 -72 16 -306 27 -383
19z m736 -450 l24 -26 3 -359 c1 -197 5 -359 8 -359 2 0 27 12 55 26 60 30 77
27 81 -17 3 -32 3 -32 51 40 27 40 47 74 45 76 -2 2 -52 26 -111 54 -99 46
-107 52 -98 70 11 19 16 17 138 -38 70 -32 129 -63 131 -69 2 -6 -34 -68 -79
-137 -67 -103 -86 -125 -103 -123 -18 3 -22 12 -26 55 l-5 53 -42 -26 -43 -25
0 -285 0 -284 -190 0 -190 0 0 266 0 266 -42 -25 -43 -25 -3 -246 -2 -246
-185 0 -185 0 0 230 c0 127 -2 230 -5 230 -3 0 -23 -9 -45 -20 -48 -25 -50
-25 -50 0 0 11 -3 20 -6 20 -3 0 -86 -41 -185 -91 -157 -80 -179 -94 -179
-115 0 -13 3 -24 6 -24 4 0 84 40 179 90 95 49 175 90 179 90 3 0 6 -92 6
-205 l0 -205 -185 0 -185 0 0 110 c0 61 -2 110 -5 110 -3 0 -23 -9 -44 -19
-29 -15 -41 -17 -50 -8 -18 18 -14 23 44 56 l55 31 0 328 0 327 58 32 c133 73
244 92 287 48 l25 -24 0 -261 c0 -143 2 -260 5 -260 3 0 23 9 45 20 22 11 42
20 45 20 3 0 5 -9 5 -20 0 -11 7 -20 15 -20 12 0 15 -14 15 -69 0 -39 5 -73
10 -76 6 -3 82 33 170 80 139 75 160 90 160 111 0 13 -2 24 -4 24 -2 0 -68
-36 -147 -79 l-144 -79 -3 71 c-3 74 -13 92 -43 76 -10 -5 -20 -9 -23 -9 -3 0
-6 137 -6 304 l0 304 93 46 c94 47 170 65 221 52 52 -13 56 -37 56 -371 0
-168 3 -305 8 -305 4 0 22 9 40 20 40 25 42 25 42 0 0 -11 7 -20 15 -20 11 0
15 -12 15 -48 0 -27 6 -56 13 -66 13 -17 24 -13 175 63 143 72 162 85 162 107
0 13 -3 24 -6 24 -3 0 -71 -34 -150 -75 l-143 -76 -3 68 c-3 72 -11 79 -61 58
-16 -7 -17 12 -15 346 l3 353 50 29 c77 46 165 76 221 77 42 0 55 -4 75 -26z"/>
</g>
</svg>
